<?xml version="1.0" encoding="UTF-8"?><svg id="Vrstva_2" xmlns="http://www.w3.org/2000/svg" viewBox="0 0 240.7 63.76"><g id="Vrstva_1-2"><g><path d="M201.05,15.02h-8.32c-.62,0-1.18,.39-1.4,.97l-9.02,22.21c-.16,.4-.74,.4-.9,0l-8.91-21.76c-.34-.86-1.17-1.42-2.09-1.42h-7.74c-1.08,0-1.8,1.1-1.38,2.09l15.19,34.92c.19,.43,.2,.92,.04,1.37l-3.05,8.34c-.37,.98,.35,2.04,1.41,2.04l8.15-.02c.62,0,1.18-.39,1.4-.96l18.03-45.72c.38-.98-.35-2.04-1.4-2.04Z"/><path d="M19.07,15.49C8.54,15.49,0,24.03,0,34.56s8.54,19.07,19.07,19.07c3.63,0,7.02-1.01,9.91-2.77v.54c0,1.23,1,2.23,2.23,2.23h4.7c1.23,0,2.23-1,2.23-2.23v-15.73c0-.1,0-.19-.02-.29,.01-.27,.02-.54,.02-.82,0-10.53-8.54-19.07-19.07-19.07Zm0,27.76c-4.8,0-8.69-3.89-8.69-8.69s3.89-8.69,8.69-8.69,8.69,3.89,8.69,8.69-3.89,8.69-8.69,8.69Z"/><path d="M143.73,15.49c-10.53,0-19.07,8.54-19.07,19.07s8.54,19.07,19.07,19.07c3.63,0,7.02-1.01,9.91-2.77v.53c0,1.23,1,2.23,2.23,2.23h4.7c1.23,0,2.23-1,2.23-2.23v-15.72c0-.1,0-.19-.02-.29,.01-.27,.02-.54,.02-.82,0-10.53-8.54-19.07-19.07-19.07Zm0,27.76c-4.8,0-8.69-3.89-8.69-8.69s3.89-8.69,8.69-8.69,8.69,3.89,8.69,8.69-3.89,8.69-8.69,8.69Z"/><path d="M240.7,34.56c0-10.53-8.54-19.07-19.07-19.07s-19.07,8.54-19.07,19.07,8.54,19.07,19.07,19.07c3.63,0,7.02-1.01,9.91-2.77v.54c0,1.23,1,2.23,2.23,2.23h4.7c1.23,0,2.23-1,2.23-2.23v-15.73c0-.1,0-.19-.02-.29,.01-.27,.02-.54,.02-.82Zm-19.07,8.69c-4.8,0-8.69-3.89-8.69-8.69s3.89-8.69,8.69-8.69,8.69,3.89,8.69,8.69-3.89,8.69-8.69,8.69Z"/><path d="M60.62,15.49c-10.53,0-19.07,8.54-19.07,19.07,0,.35,.01,.71,.03,1.06-.02,.12-.03,.25-.03,.37v21.38c0,1.41,1.14,2.55,2.55,2.55h4.06c1.41,0,2.55-1.14,2.55-2.55v-6.51c2.89,1.76,6.28,2.77,9.91,2.77,10.53,0,19.07-8.54,19.07-19.07s-8.54-19.07-19.07-19.07Zm0,27.76c-4.8,0-8.69-3.89-8.69-8.69s3.89-8.69,8.69-8.69,8.69,3.89,8.69,8.69-3.89,8.69-8.69,8.69Z"/><path d="M102.17,15.49c-10.53,0-19.07,8.54-19.07,19.07,0,.35,.01,.71,.03,1.06-.02,.12-.03,.25-.03,.37v21.38c0,1.41,1.14,2.55,2.55,2.55h4.06c1.41,0,2.55-1.14,2.55-2.55v-6.51c2.89,1.76,6.28,2.77,9.91,2.77,10.53,0,19.07-8.54,19.07-19.07s-8.54-19.07-19.07-19.07Zm0,27.76c-4.8,0-8.69-3.89-8.69-8.69s3.89-8.69,8.69-8.69,8.69,3.89,8.69,8.69-3.89,8.69-8.69,8.69Z"/><path d="M138.01,10.71h18.09c.51,0,.92-.41,.92-.92,0-5.4-4.38-9.79-9.79-9.79h-18.09c-.51,0-.92,.41-.92,.92,0,5.4,4.38,9.79,9.79,9.79Z"/></g></g></svg>