<?xml version="1.0" standalone="no"?>
<svg xmlns:xlink="http://www.w3.org/1999/xlink" id="wave" style="transform:rotate(180deg); transition: 0.3s" viewBox="0 0 1440 310" version="1.1" xmlns="http://www.w3.org/2000/svg"><defs><linearGradient id="sw-gradient-0" x1="0" x2="0" y1="1" y2="0"><stop stop-color="rgba(82.131, 148.347, 131.523, 1)" offset="0%"/><stop stop-color="rgba(56.23, 255, 170.828, 1)" offset="100%"/></linearGradient></defs><path style="transform:translate(0, 0px); opacity:1" fill="url(#sw-gradient-0)" d="M0,217L48,227.3C96,238,192,258,288,268.7C384,279,480,279,576,253.2C672,227,768,176,864,144.7C960,114,1056,103,1152,113.7C1248,124,1344,155,1440,139.5C1536,124,1632,62,1728,72.3C1824,83,1920,165,2016,196.3C2112,227,2208,207,2304,206.7C2400,207,2496,227,2592,201.5C2688,176,2784,103,2880,108.5C2976,114,3072,196,3168,206.7C3264,217,3360,155,3456,134.3C3552,114,3648,134,3744,155C3840,176,3936,196,4032,206.7C4128,217,4224,217,4320,180.8C4416,145,4512,72,4608,67.2C4704,62,4800,124,4896,124C4992,124,5088,62,5184,51.7C5280,41,5376,83,5472,118.8C5568,155,5664,186,5760,170.5C5856,155,5952,93,6048,103.3C6144,114,6240,196,6336,201.5C6432,207,6528,134,6624,108.5C6720,83,6816,103,6864,113.7L6912,124L6912,310L6864,310C6816,310,6720,310,6624,310C6528,310,6432,310,6336,310C6240,310,6144,310,6048,310C5952,310,5856,310,5760,310C5664,310,5568,310,5472,310C5376,310,5280,310,5184,310C5088,310,4992,310,4896,310C4800,310,4704,310,4608,310C4512,310,4416,310,4320,310C4224,310,4128,310,4032,310C3936,310,3840,310,3744,310C3648,310,3552,310,3456,310C3360,310,3264,310,3168,310C3072,310,2976,310,2880,310C2784,310,2688,310,2592,310C2496,310,2400,310,2304,310C2208,310,2112,310,2016,310C1920,310,1824,310,1728,310C1632,310,1536,310,1440,310C1344,310,1248,310,1152,310C1056,310,960,310,864,310C768,310,672,310,576,310C480,310,384,310,288,310C192,310,96,310,48,310L0,310Z"/></svg>